<?xml version="1.0" encoding="utf-8"?>
<!-- Generator: Adobe Illustrator 16.0.0, SVG Export Plug-In . SVG Version: 6.00 Build 0)  -->
<!DOCTYPE svg PUBLIC "-//W3C//DTD SVG 1.1//EN" "http://www.w3.org/Graphics/SVG/1.1/DTD/svg11.dtd">
<svg version="1.1" id="Layer_1" xmlns="http://www.w3.org/2000/svg" xmlns:xlink="http://www.w3.org/1999/xlink" x="0px" y="0px"
	 width="288px" height="288px" viewBox="0 0 288 288" enable-background="new 0 0 288 288" xml:space="preserve">
<g>
	<path fill="#010101" d="M159.076,115.483c-0.196,2.475-0.312,4.958-0.283,7.434c0.022,2.519,0.218,5.028,0.558,7.52
		c0.166,1.173,0.377,2.338,0.623,3.503c0.231,1.122,0.615,2.215,0.998,3.3c0.786,2.178,1.716,4.321,2.081,6.623
		c0.065,0.573,0.085,1.13,0.019,1.7c-0.069,0.382-0.172,0.747-0.318,1.113c-0.142,0.286-0.306,0.559-0.496,0.819
		c-0.237,0.288-0.49,0.539-0.776,0.78c-0.478,0.354-0.984,0.635-1.525,0.868c-0.914,0.357-1.867,0.571-2.841,0.707
		c-1.574,0.175-3.161,0.142-4.726-0.062c0.003,0,0.005,0.002,0.007,0.002c-0.443-0.076-0.874-0.191-1.31-0.312
		c-0.363-0.102-0.753,0.116-0.848,0.485c-0.102,0.361,0.116,0.745,0.478,0.847c0.421,0.115,0.833,0.231,1.253,0.311
		c0.289,0.058,0.593,0.08,0.883,0.116c0.622,0.072,1.252,0.108,1.88,0.123c1.211,0.021,2.427-0.087,3.62-0.312
		c1.079-0.209,2.136-0.586,3.099-1.122c0.924-0.521,1.699-1.273,2.243-2.186c0.55-0.904,0.731-1.99,0.724-3.042
		c-0.007-0.678-0.145-1.366-0.289-2.032c-0.202-0.919-0.507-1.817-0.827-2.7c-0.577-1.628-1.257-3.22-1.779-4.871
		c-0.267-0.825-0.448-1.671-0.622-2.526c-0.2-0.999-0.354-2.003-0.495-3.016c-0.294-2.322-0.445-4.65-0.467-6.987
		c-0.031-2.367,0.094-4.726,0.281-7.085c0.029-0.304-0.274-0.564-0.571-0.564C159.322,114.919,159.104,115.179,159.076,115.483
		 M160.386,129.423c0.006,0.038,0.011,0.078,0.017,0.12L160.386,129.423z M163.082,145.504c-0.002,0.013-0.004,0.027-0.008,0.04
		C163.078,145.531,163.08,145.517,163.082,145.504 M162.803,146.57c-0.007,0.016-0.014,0.03-0.021,0.047
		C162.789,146.601,162.796,146.586,162.803,146.57 M161.565,148.213c-0.019,0.015-0.038,0.027-0.055,0.04
		C161.527,148.24,161.547,148.228,161.565,148.213"/>
	<path fill="#010101" d="M124.797,98.297c-1.569,0.253-3.155,0.573-4.676,1.049c-0.724,0.232-1.435,0.507-2.14,0.774
		c-0.702,0.268-1.404,0.55-2.099,0.854c-1.486,0.645-2.868,1.455-4.231,2.324c-2.699,1.722-5.16,3.749-7.415,6.015
		c-0.213,0.217-0.228,0.571-0.007,0.796c0.208,0.217,0.57,0.224,0.785,0.007c0.999-0.999,2.063-1.919,3.197-2.769
		c1.189-0.87,2.426-1.655,3.709-2.37c1.4-0.766,2.89-1.368,4.374-1.954c1.17-0.442,2.367-0.827,3.588-1.108
		c1.375-0.326,2.772-0.594,4.176-0.76c-0.118,0.015-0.222,0.03-0.34,0.043c1.301-0.137,2.62-0.159,3.928-0.152
		c1.25,0,2.484,0.096,3.719,0.251l-0.183-0.027c0.061,0.01,0.122,0.019,0.185,0.029c0.075,0.009,0.15,0.019,0.226,0.029
		c-0.072-0.01-0.145-0.019-0.217-0.029c2.104,0.324,4.16,0.865,6.205,1.469c0.671,0.195,1.415-0.116,1.773-0.716
		c0.208-0.355,0.266-0.774,0.17-1.172c-0.09-0.37-0.367-0.811-0.729-0.977c-0.744-0.333-1.491-0.645-2.266-0.891
		c-0.722-0.239-1.479-0.412-2.222-0.558c-1.622-0.326-3.273-0.47-4.921-0.499c-0.144-0.004-0.285-0.006-0.425-0.006
		C127.564,97.951,126.183,98.08,124.797,98.297 M131.377,101.301h-0.009c0-0.002,0-0.002-0.002-0.002
		C131.369,101.301,131.373,101.301,131.377,101.301"/>
	<path fill="#010101" d="M185.924,113.981c-0.151,0-0.304,0-0.456,0.007c-2.639,0.078-5.243,0.995-7.53,2.653
		c-1.159,0.851-2.2,1.854-3.094,2.985c-0.972,1.234-1.812,2.664-2.492,4.247c-0.183,0.413-0.081,0.812,0.261,1.013
		c0.107,0.063,0.243,0.095,0.382,0.095c0.293,0,0.543-0.142,0.637-0.362c0.551-1.263,1.238-2.438,2.045-3.493
		c0.722-0.877,1.509-1.663,2.342-2.334l0.148-0.138l-0.011-0.014c0.311-0.182,0.702-0.434,1.104-0.666
		c-0.225,0.635-0.391,1.377-0.547,2.312c-0.271,1.63-0.327,3.313-0.166,5c0.081,0.78,0.237,1.539,0.463,2.255
		c0.108,0.34,0.24,0.666,0.386,0.992c0.166,0.363,0.383,0.697,0.609,1.024c0.352,0.51,0.851,0.968,1.446,1.322
		c0.584,0.342,1.295,0.554,2.113,0.626c0.119,0.011,0.238,0.016,0.357,0.016c0.48,0,0.983-0.09,1.453-0.264
		c0.532-0.19,1.041-0.52,1.511-0.974c0.804-0.785,1.417-1.915,1.873-3.454c0.379-1.267,0.612-2.698,0.731-4.499
		c0.086-1.322,0.076-2.729-0.037-4.294c-0.021-0.354-0.057-0.702-0.101-1.051l0.149,0.084l0.173,0.065
		c0.966,0.427,1.896,0.971,2.761,1.626c0.914,0.729,1.764,1.585,2.603,2.617c0.591,0.773,1.179,1.672,1.792,2.754
		c0.178,0.317,0.539,0.52,0.917,0.52c0.312,0.04,0.546,0.056,0.783,0.056c0.208,0,0.417-0.012,0.628-0.028
		c0.616-0.036,1.211-0.241,1.783-0.436c0.52-0.183,1.058-0.449,1.691-0.834c0.469-0.282,0.913-0.615,1.32-0.994
		c0.252-0.229,0.282-0.621,0.067-0.872c-0.116-0.137-0.302-0.224-0.485-0.224c-0.145,0-0.284,0.054-0.396,0.15
		c-0.157,0.145-0.31,0.266-0.484,0.382c-0.386,0.222-0.774,0.401-1.179,0.55l-0.003-0.002c-0.762,0.219-1.582,0.364-2.588,0.455
		l0.219-0.029c0.311-0.094,0.609-0.232,0.906-0.369c0.262-0.118,0.535-0.295,0.815-0.523c0.145-0.108,0.289-0.233,0.42-0.364
		c0.132-0.132,0.256-0.27,0.371-0.421c0.077-0.083,0.148-0.183,0.148-0.336c0.008-0.122-0.039-0.241-0.127-0.338
		c-0.089-0.096-0.228-0.152-0.376-0.152c-0.128,0-0.242,0.047-0.311,0.13l-0.168,0.23l-0.013-0.015
		c-0.13,0.13-0.266,0.253-0.418,0.36c-0.115,0.08-0.236,0.152-0.359,0.224c-0.188,0.102-0.387,0.19-0.585,0.274
		c-0.462,0.173-0.866,0.282-1.27,0.383l-0.071-0.183l-0.09-0.192c0.136-0.032,0.28-0.105,0.42-0.179
		c0.174-0.094,0.334-0.203,0.486-0.318c0.198-0.147,0.364-0.306,0.53-0.473c0.192-0.191,0.201-0.492,0.023-0.684
		c-0.096-0.096-0.227-0.152-0.354-0.152c-0.127,0-0.245,0.048-0.331,0.135c-0.131,0.145-0.274,0.275-0.427,0.398
		c-0.056,0.049-0.215,0.158-0.388,0.251c-0.136,0.069-0.28,0.136-0.433,0.194c-0.327-0.588-0.702-1.136-1.092-1.631
		c-0.893-1.132-1.977-2.125-3.226-2.957c-1.06-0.711-2.32-1.271-3.748-1.673C188.317,114.139,187.133,113.981,185.924,113.981
		 M183.851,116.374c0.015,0,0.047-0.009,0.055-0.009h0.007c0.176-0.022,0.299-0.031,0.43-0.036l0.034,0.206l0.018-0.004
		c0.044,0.566,0.062,1.166,0,1.768c-0.051,0.33-0.132,0.637-0.246,0.943c-0.034,0.092-0.136,0.281-0.257,0.474
		c-0.08,0.092-0.164,0.177-0.266,0.264l-0.332,0.148l-0.204-0.018l-0.204-0.08l0.011-0.015c-0.063-0.053-0.121-0.116-0.17-0.172
		c-0.072-0.107-0.129-0.221-0.187-0.336c-0.057-0.17-0.1-0.344-0.136-0.523c-0.047-0.375-0.047-0.772,0-1.217
		c0.051-0.398,0.138-0.787,0.238-1.171c0.379-0.085,0.778-0.163,1.179-0.219c-0.01,0,0.011-0.011,0.02-0.011
		c0.002,0,0.004,0.002,0.004,0.004C183.844,116.374,183.847,116.374,183.851,116.374"/>
	<path fill="#010101" d="M124.296,114.206c-1.504,0-3.04,0.193-4.567,0.573c-1.531,0.37-3.007,0.962-4.383,1.761
		c-1.368,0.79-2.598,1.829-3.558,3c-0.51,0.621-0.955,1.279-1.328,1.965c-0.094-0.106-0.217-0.215-0.333-0.324
		c-0.108-0.114-0.208-0.23-0.31-0.353c-0.168-0.193-0.3-0.411-0.437-0.629c-0.126-0.201-0.305-0.283-0.445-0.297
		c-0.188,0-0.322,0.046-0.432,0.127c-0.125,0.101-0.203,0.246-0.217,0.398c-0.015,0.17,0.038,0.292,0.125,0.431
		c0.3,0.498,0.622,0.901,0.981,1.234c0.188,0.168,0.377,0.32,0.58,0.465c-0.078,0.145-0.143,0.311-0.209,0.478
		c-0.183-0.125-0.393-0.255-0.599-0.4c-0.209-0.145-0.4-0.309-0.586-0.483l-0.333-0.368c-0.112-0.145-0.228-0.294-0.331-0.454
		c-0.085-0.121-0.228-0.19-0.391-0.19c-0.121,0-0.243,0.04-0.338,0.112c-0.215,0.168-0.25,0.48-0.083,0.721
		c0.168,0.241,0.335,0.458,0.525,0.675c0.208,0.248,0.456,0.465,0.694,0.675c0.304,0.272,0.677,0.503,1.142,0.706l-0.391-0.114
		c-0.405-0.159-0.802-0.333-1.192-0.528c-0.51-0.297-1.002-0.653-1.458-1.06c-0.326-0.346-0.595-0.695-0.831-1.068
		c-0.087-0.15-0.266-0.241-0.478-0.241c-0.154,0-0.312,0.053-0.429,0.141c-0.134,0.11-0.217,0.268-0.231,0.434
		c-0.025,0.194,0.049,0.338,0.131,0.467c0.298,0.484,0.631,0.935,0.986,1.377c0.378,0.465,0.831,0.914,1.384,1.37
		c0.395,0.328,0.865,0.613,1.44,0.872c0.221,0.105,0.496,0.187,0.771,0.234c0.159,0.045,0.33,0.064,0.554,0.064
		c0.101,0.024,0.169,0.057,0.239,0.073c0.087,0.023,0.173,0.035,0.262,0.035c0.436,0,0.834-0.299,0.964-0.729
		c0.068-0.237,0.163-0.461,0.266-0.684c0.443-0.998,0.964-1.884,1.583-2.718c0.695-0.873,1.487-1.662,2.356-2.349
		c1.028-0.782,2.168-1.447,3.389-1.981l0.225-0.089c-0.248,0.793-0.427,1.66-0.566,2.631c-0.251,1.738-0.27,3.435-0.062,5.05
		c0.206,1.583,0.764,2.986,1.61,4.057c0.905,1.127,2.359,1.855,3.896,1.946l0.221,0.005c0.505,0,1.024-0.105,1.545-0.312
		c0.621-0.244,1.104-0.7,1.497-1.111c0.461-0.483,0.789-1.113,1.047-1.663c0.298-0.655,0.489-1.373,0.651-2.052
		c0.3-1.229,0.444-2.627,0.436-4.274c-0.021-1.5-0.26-3.13-0.762-5.13c0.889,0.219,1.781,0.492,2.624,0.833
		c0.993,0.445,1.853,0.943,2.618,1.515l-0.001,0.003c0.754,0.601,1.409,1.257,2.001,2.008c0.512,0.701,0.95,1.455,1.301,2.241
		c0.138,0.324,0.253,0.656,0.37,0.997c0.098,0.313,0.373,0.524,0.684,0.524c0.063,0,0.128-0.009,0.192-0.029
		c0.183-0.047,0.344-0.177,0.442-0.353c0.09-0.167,0.11-0.353,0.056-0.525c-0.508-1.572-1.241-2.976-2.183-4.174
		c-0.884-1.125-2.008-2.139-3.342-3.015c-2.441-1.593-5.493-2.454-8.823-2.494L124.296,114.206z M122.959,116.493
		c0.014,0,0.048-0.013,0.056-0.013c0.362-0.043,0.716-0.072,1.079-0.094c0.08,0.778,0.092,1.455,0.025,2.115
		c-0.001-0.002-0.001-0.002-0.001-0.002c-0.003,0,0,0.004,0,0.009v0.006c-0.083,0.514-0.179,0.869-0.304,1.184
		c-0.085,0.187-0.194,0.373-0.315,0.553c-0.093,0.112-0.194,0.213-0.308,0.308c-0.078,0.056-0.165,0.106-0.258,0.148l-0.203,0.043
		l-0.294-0.025l0.009-0.018c-0.062-0.025-0.116-0.06-0.179-0.107c-0.063-0.049-0.121-0.106-0.17-0.17
		c-0.078-0.114-0.15-0.228-0.215-0.358c-0.102-0.272-0.15-0.511-0.192-0.754c-0.049-0.451-0.042-0.918,0.02-1.428
		c0.053-0.338,0.143-0.795,0.268-1.243c0.302-0.051,0.621-0.108,0.947-0.152c0.003-0.002,0.018-0.007,0.025-0.007
		c0.003,0,0.005,0.002,0.007,0.004C122.954,116.493,122.956,116.493,122.959,116.493"/>
	<path fill="#010101" d="M158.853,159.021c-0.122,0-0.252,0-0.385,0.008c-0.257,0.015-0.528,0.077-0.789,0.141
		c-0.626,0.163-1.062,0.352-1.532,0.563c-0.391,0.173-0.638,0.274-0.891,0.368c-0.264,0.111-0.566,0.194-0.923,0.261
		c-0.172,0.021-0.351,0.035-0.524,0.035s-0.348-0.008-0.526-0.023c-0.532-0.067-1.016-0.173-1.506-0.277l-0.252-0.06
		c-0.557-0.127-1.108-0.207-1.664-0.248c-0.112-0.008-0.228-0.008-0.337-0.008c-0.414,0-0.827,0.049-1.233,0.131
		c-0.514,0.117-1.016,0.27-1.51,0.458c-0.925,0.349-1.786,0.847-2.667,1.369l-0.29,0.174c-0.894,0.538-1.724,1.035-2.58,1.445
		c-0.318,0.138-0.628,0.26-0.956,0.37c-0.314,0.115-0.649,0.194-0.974,0.253c-0.288,0.02-0.582,0.034-0.879,0.034
		c-0.83-0.524-1.635-1.095-2.375-1.688l-0.233-0.169c-0.074-0.096-0.188-0.142-0.308-0.142c-0.14,0-0.277,0.061-0.382,0.165
		c-0.205,0.188-0.384,0.386-0.559,0.596c-0.203,0.255-0.364,0.528-0.508,0.8c-0.062,0.114-0.076,0.242-0.038,0.368
		c0.045,0.133,0.138,0.241,0.257,0.301c0.061,0.035,0.134,0.053,0.217,0.053c0.186,0,0.358-0.103,0.452-0.27
		c0.072-0.131,0.134-0.246,0.214-0.369c0.144-0.208,0.23-0.316,0.326-0.416c0.398,0.266,0.812,0.554,1.23,0.845l0.51,0.352
		c0.413,0.281,0.834,0.55,1.259,0.803c0.073,0.556,0.201,1.135,0.376,1.707c0.2,0.675,0.496,1.369,0.914,2.124
		c0.674,1.25,1.667,2.397,2.952,3.407c0.543,0.425,1.164,0.828,1.898,1.232c0.601,0.319,1.27,0.611,2.108,0.912
		c1.396,0.506,2.923,0.812,4.667,0.935c0.371,0.021,0.747,0.036,1.116,0.036c1.075,0,2.232-0.112,3.441-0.332
		c1.504-0.284,2.975-0.804,4.37-1.544c0.732-0.386,1.394-0.861,1.999-1.319c0.804-0.626,1.597-1.301,2.427-2.064
		c0.42-0.397,0.825-0.825,1.211-1.261c0.347-0.384,0.658-0.804,0.962-1.224c0.543-0.765,0.947-1.587,1.198-2.444
		c0.094-0.253,0.175-0.499,0.238-0.755c0.681-0.452,1.347-0.96,1.998-1.487l0.195-0.074c0.006,0.031,0.046,0.069,0.125,0.148
		c0.161,0.155,0.263,0.292,0.34,0.428c0.102,0.146,0.261,0.232,0.43,0.232c0.096,0,0.186-0.028,0.264-0.083
		c0.105-0.062,0.185-0.179,0.218-0.314c0.03-0.14,0.007-0.275-0.069-0.376c-0.074-0.133-0.172-0.265-0.304-0.415
		c-0.14-0.154-0.284-0.27-0.46-0.401c-0.284-0.203-0.595-0.307-0.917-0.4h-0.021c-0.355,0-0.533,0.192-0.574,0.382
		c-0.017,0.073-0.015,0.144,0.007,0.227c-0.455,0.325-0.926,0.675-1.433,1.001l-0.159,0.101l-0.261,0.167
		c-0.472-0.275-0.948-0.579-1.404-0.905c-0.448-0.325-0.847-0.629-1.244-0.939c-0.509-0.39-0.958-0.734-1.419-1.058
		c-0.435-0.305-0.878-0.594-1.341-0.854c-0.537-0.316-1.123-0.533-1.574-0.689c-0.439-0.152-0.928-0.253-1.451-0.306
		C159.166,159.021,159.005,159.021,158.853,159.021"/>
	<path fill="#010101" d="M133.749,6.583c-2.022,0-4.089,0.258-6.15,0.768c-5.099,1.277-9.486,4.01-13.468,6.771
		c-1.143,0.782-2.265,1.585-3.395,2.396l-0.477,0.34l-0.217,0.152c-3.005,2.147-6.116,4.37-9.4,6.251l-0.921,0.514l-0.924,0.506
		c-1.262,0.688-2.521,1.375-3.751,2.128c-0.926,0.568-1.814,1.18-2.635,1.818c-0.76,0.575-1.507,1.262-2.291,2.094
		c-0.713,0.756-1.245,1.612-1.722,2.421c-0.435,0.763-0.74,1.632-0.966,2.734c-0.188,0.901-0.192,1.938-0.008,3.076
		c0.08,0.543,0.224,1.071,0.398,1.66c0.072,0.246,0.166,0.5,0.261,0.74c-0.37-0.143-0.858-0.191-1.662-0.191
		c-1.371,0-2.83,0.119-4.339,0.354c-2.464,0.411-4.885,1.164-7.198,2.239c-4.397,2.018-8.399,5.26-11.573,9.378
		c-1.476,1.914-2.793,4.113-3.91,6.532c-1.247,2.709-1.983,5.506-2.629,8.137c-0.836,3.393-1.491,6.967-2.143,10.634l-0.051,0.261
		c-0.573,3.209-1.056,5.878-1.644,8.547c-0.433,1.924-0.896,3.733-1.381,5.376c-1.252,4.116-2.722,7.569-4.494,10.556l-0.086,0.167
		c-1.507,2.381-3.205,4.471-5.188,6.387c-1.335,1.281-3.029,2.666-5.172,4.232c-0.984,0.709-1.982,1.397-2.989,2.068l-1.035,0.673
		l-0.391,0.261c-0.681,0.441-1.361,0.89-2.026,1.355c-1.943,1.352-3.677,3.062-5.012,4.939c-1.252,1.73-2.219,3.741-2.877,5.977
		c-1.147,3.868-1.259,8.294-0.333,13.153c0.778,4.179,2.316,8.609,4.577,13.171c0.937,1.892,2.018,3.795,3.204,5.653
		c0.54,0.849,1.102,1.681,1.683,2.498c0.843,1.193,1.549,2.289,2.155,3.356c1.106,2.058,1.906,4.079,2.438,6.178
		c0.373,1.696,0.543,3.426,0.506,5.141c-0.096,1.562-0.353,3.078-0.767,4.512c-0.536,1.683-1.258,3.287-2.199,4.91
		c-1.455,2.264-2.951,4.094-4.854,5.933c-1.012,0.952-2.059,1.845-3.206,2.819l-0.225,0.22l-1.511,1.25
		c-2.05,1.76-3.64,3.267-5.01,4.743c-1.607,1.738-2.92,3.582-3.905,5.482c-1.017,1.961-1.6,4.177-1.679,6.407
		c-0.08,2.278,0.362,4.589,1.281,6.68c0.391,0.889,0.91,1.777,1.589,2.719c0.647,0.923,1.451,1.733,2.214,2.484
		c1.357,1.321,2.924,2.462,4.311,3.468l0.644,0.472c1.554,1.139,3.341,2.48,4.855,4.021c0.273,0.298,0.542,0.601,0.802,0.904
		c0.402,0.484,0.771,1.028,1.134,1.662c0.914,1.763,1.428,3.599,1.852,5.321l0.058,0.197l0.049,0.251
		c0.387,1.671,0.753,3.249,1.275,4.736c0.601,1.724,1.549,3.403,2.747,4.854c1.933,2.331,4.828,4.103,8.375,5.125
		c1.555,0.448,3.174,0.768,5.099,1.007c1.681,0.221,3.42,0.347,5.163,0.376h0.601c1.303,0,2.734-0.062,4.504-0.195l0.758-0.044
		c1.777-0.106,3.356-0.203,4.985-0.203c0.292,0,0.588,0.008,0.877,0.016c1.998,0.08,3.646,0.311,5.192,0.731
		c0.762,0.258,1.415,0.524,2.117,0.859l-0.003,0.547l0.06,0.625c0.124,1.354,0.251,2.707,0.42,4.061
		c0.021,0.183,0.045,0.312,0.148,0.438c-0.013,0.213,0.123,0.442,0.33,0.562c7.592,4.335,16.607,7.574,27.562,9.902
		c8.327,1.783,17.613,3.049,29.221,3.98c5.645,0.456,11.467,0.688,17.3,0.688c17.785,0,35.527-2.178,52.739-6.471
		c1.796-0.449,3.583-0.911,5.363-1.384l1.867-0.491c2.943-0.754,5.146-1.38,7.139-2.026c2.505-0.8,4.671-1.666,6.616-2.644
		c1.09-0.536,2.14-1.155,3.123-1.84c0.421-0.29,0.818-0.601,1.217-0.919c0.193-0.123,0.384-0.269,0.563-0.413
		c0.379-0.293,0.736-0.651,1.133-1.124c0.067-0.085,0.105-0.167,0.119-0.256c0.146-0.825,0.219-1.549,0.291-2.454
		c0.58-0.048,1.278-0.214,2.122-0.49c0.702-0.218,1.368-0.478,2.028-0.755c0.499-0.209,0.998-0.428,1.491-0.666
		c1.6-0.545,3.25-1.307,5.35-2.469c1.902-1.032,3.648-2.142,5.907-3.597l1.319-0.861l1.097-0.724l1.471-0.956l1.823-1.18
		c2.637-1.76,4.852-3.419,6.77-5.074c0.878-0.755,1.776-1.604,2.832-2.673c1.067-1.104,1.988-2.261,2.767-3.26
		c0.766-0.983,1.435-2.011,1.992-3.055c0.635-1.159,1.042-2.449,1.21-3.837c0.065-0.521,0.036-1.062,0-1.523
		c-0.029-0.248-0.079-0.485-0.145-0.713c-0.088-0.34-0.197-0.66-0.334-0.986c-0.168-0.427-0.392-0.834-0.624-1.239l-0.202-0.376
		c-0.311-0.583-0.525-1.053-0.673-1.473c-0.041-0.208-0.076-0.407-0.092-0.634c0.021-0.612,0.092-1.155,0.217-1.659
		c0.213-0.752,0.541-1.546,1.004-2.427l0.087-0.19c0.816-1.35,1.82-2.69,2.626-3.767l0.195-0.261l0.131-0.174
		c1.076-1.402,1.959-2.602,2.756-3.903c0.985-1.578,1.646-3.087,2.017-4.615c0.427-1.871,0.564-3.795,0.405-5.716
		c-0.132-1.554-0.579-3.145-1.326-4.725c-0.782-1.664-1.854-3.1-2.594-4.035c-0.767-0.984-1.592-1.919-2.416-2.853l-0.943-1.08
		c-0.57-0.659-1.12-1.324-1.662-2.002c-0.689-0.839-1.353-1.777-2.027-2.873c-0.324-0.593-0.62-1.199-0.888-1.821
		c-0.29-0.662-0.527-1.354-0.744-2.177c-0.324-1.315-0.493-2.655-0.515-4.092c0.029-1.757,0.284-3.581,0.782-5.577l0.008-0.228
		c1.046-3.539,2.559-6.883,3.892-9.742l0.868-1.823l0.385-0.816c0.332-0.704,0.664-1.406,0.99-2.115
		c0.742-1.6,1.446-3.261,2.092-4.937c1.185-3.15,2.117-6.395,2.774-9.644c0.631-3.159,0.94-6.451,0.919-9.782
		c-0.014-1.481-0.127-3.021-0.34-4.707c-0.192-1.503-0.523-3.11-1.014-4.917c-0.842-3.077-2.208-6.148-4.057-9.13
		c-0.814-1.334-1.78-2.673-2.873-3.978c-0.739-0.857-1.605-1.735-2.811-2.847c-1.558-1.428-3.331-2.797-4.759-3.896l-1.352-1.062
		c-1.489-1.17-3.225-2.573-4.804-4.116c-1.334-1.379-2.369-2.7-3.16-4.035c-0.58-1.089-1.007-2.146-1.301-3.232
		c-0.271-1.102-0.412-2.24-0.434-3.476c0.043-1.885,0.357-3.913,0.991-6.378c0.253-0.941,0.535-1.918,0.823-2.902l0.131-0.441
		l0.139-0.5c0.253-0.876,0.506-1.758,0.73-2.644c0.307-1.2,0.545-2.381,0.712-3.512c0.139-0.977,0.193-2.091,0.164-3.404
		c-0.064-2.189-0.702-4.469-1.841-6.595c-0.907-1.721-2.128-3.235-3.623-4.5c-1.119-0.961-2.564-1.788-4.297-2.458
		c-1.411-0.526-3.09-0.95-5.136-1.288c-1.236-0.21-2.474-0.362-3.712-0.514l-0.378-0.043c-2.137-0.251-4.482-0.528-6.715-1.092
		c-1.636-0.448-3.047-1.002-4.308-1.7c-0.989-0.581-1.847-1.23-2.625-1.986c-0.514-0.55-0.965-1.149-1.38-1.828
		c-0.415-0.78-0.728-1.582-0.981-2.522c-0.401-1.594-0.558-3.213-0.709-4.78c-0.125-1.212-0.225-2.153-0.36-3.098
		c-0.191-1.261-0.503-2.512-0.931-3.716c-0.296-0.812-0.689-1.582-0.962-2.089c-0.325-0.615-0.689-1.216-1.073-1.796
		c-0.604-0.907-1.383-1.802-2.375-2.738c-0.79-0.747-1.721-1.408-3.015-2.139c-1.788-1.009-3.926-1.69-6.73-2.137
		c-2.498-0.404-5.111-0.465-7.574-0.492c-1.236-0.015-2.475-0.015-3.719-0.015c-1.752-0.007-3.503-0.058-5.256-0.145
		c-6.325-0.326-12.962-1.389-19.726-3.156c-6.258-1.672-12.392-3.854-19.187-6.326c-2.98-1.081-5.9-1.73-8.684-1.933
		C134.9,6.604,134.328,6.583,133.749,6.583 M98.522,110.88l1.245-1.417l0.123-0.154c0.594-0.724,1.187-1.455,1.737-2.215
		c0.774-1.046,1.397-2.294,1.849-3.704c0.521-1.661,0.844-3.436,1.129-5.003l0.058-0.348l0.065-0.354l0.217-1.224
		c0.326-1.859,0.658-3.72,1.056-5.565c0.395-1.853,0.977-4.285,1.967-6.655c0.494-1.156,1.066-2.18,1.75-3.132
		c0.434-0.548,0.929-1.053,1.473-1.5c0.427-0.333,0.916-0.623,1.444-0.86c0.536-0.208,1.089-0.353,1.697-0.44
		c0.293-0.028,0.59-0.043,0.887-0.043c0.369,0,0.738,0.021,1.096,0.058c1.012,0.145,1.973,0.395,2.855,0.736
		c1.125,0.507,2.228,1.18,3.369,2.062c2.464,1.983,4.495,4.378,6.457,6.693l0.771,0.897c1.784,2.13,3.804,4.543,6.12,6.625
		c2.745,2.457,5.403,3.883,8.121,4.361c0.63,0.121,1.346,0.181,2.131,0.181c0.956,0,1.911-0.1,2.842-0.297
		c0.839-0.175,1.671-0.478,2.543-0.928c0.844-0.425,1.629-0.997,2.263-1.456l0.552-0.406c1.015-0.744,1.992-1.458,3.034-1.938
		c0.382-0.136,0.778-0.251,1.189-0.324c0.143-0.015,0.294-0.015,0.446-0.015c0.172,0,0.348,0.007,0.512,0.021
		c0.466,0.082,0.895,0.201,1.349,0.375c0.31,0.159,0.611,0.333,0.908,0.541c0.25,0.23,0.495,0.476,0.728,0.744
		c0.385,0.542,0.738,1.192,1.074,1.984l0.148,0.185l0.135,0.494c0.246,0.603,0.491,1.189,0.776,1.76
		c0.417,0.838,0.949,1.591,1.579,2.235c0.313,0.336,0.694,0.599,1.064,0.854c0.559,0.389,1.045,0.607,1.541,0.814
		c0.925,0.376,1.951,0.595,3.227,0.689c0.246,0.015,0.478,0.021,0.711,0.021c0.749,0,1.543-0.067,2.501-0.209
		c1.029-0.134,2.139-0.36,3.488-0.702c0.603-0.152,1.194-0.304,1.795-0.463l0.261-0.065c1.421-0.364,2.796-0.715,4.184-0.927
		c0.849-0.096,1.646-0.145,2.377-0.145c0.766,0,1.591,0.051,2.452,0.152c1.361,0.219,2.639,0.57,3.795,1.04
		c1.155,0.529,2.209,1.15,3.216,1.895c1.21,0.95,2.402,2.148,3.544,3.555c0.605,0.806,1.137,1.558,1.605,2.302
		c0.209,0.369,0.396,0.758,0.569,1.149c0.757,1.795,1.324,3.706,1.78,5.24l0.413,1.38c0.817,2.712,1.575,5.149,2.591,7.522
		c0.456,1.081,0.908,1.933,1.421,2.682c0.593,0.905,1.237,1.565,1.967,2.018c0.219,0.138,0.465,0.246,0.713,0.342
		c0.132-0.158,0.178-0.299,0.219-0.42c0.092-0.307,0.236-0.456,0.426-0.456c0.166,0.044,0.27,0.107,0.33,0.208
		c0.055,0.087,0.068,0.199,0.042,0.29l-0.056,0.217c-0.046,0.145-0.081,0.29-0.118,0.433c-0.217,1.22-0.448,2.276-0.716,3.331
		c-0.017,0.648-0.067,1.256-0.146,1.872c-0.123,1-0.281,2.001-0.463,2.987c-0.329,1.83-0.751,3.628-1.252,5.347
		c-0.999,3.455-2.333,6.822-3.964,10.007c-0.305,0.594-0.624,1.18-0.949,1.767c-0.341,0.745-0.702,1.469-1.093,2.186l-0.312,0.55
		c-0.217,0.405-0.449,0.804-0.68,1.194c-0.616,1.199-1.354,2.406-2.258,3.689c-0.392,0.579-0.753,1.078-1.115,1.577
		c-0.513,0.814-1.084,1.613-1.8,2.512c-0.37,0.455-0.747,0.918-1.123,1.366l-0.166,0.219l-0.166,0.218
		c-0.196,0.253-0.397,0.505-0.608,0.758l-0.239,0.275c-2.644,3.395-5.274,6.115-8.047,8.321l-0.405,0.312l-0.304,0.238
		c-0.506,0.442-1.034,0.869-1.568,1.267c-0.269,0.196-0.543,0.392-0.818,0.577l-0.159,0.108l-0.159,0.109
		c-0.412,0.306-0.824,0.593-1.25,0.876c-1.243,0.892-2.541,1.683-3.857,2.352c-1.151,0.579-2.324,1.122-3.509,1.629
		c-0.34,0.152-0.674,0.297-1.013,0.441c-0.804,0.332-1.593,0.657-2.39,0.968c-2.745,1.064-5.035,1.793-7.206,2.295
		c-0.643,0.145-1.287,0.281-1.938,0.398c-0.483,0.058-0.976,0.102-1.468,0.137c-0.588,0.08-1.172,0.146-1.766,0.196l-0.326,0.021
		c-0.238,0.021-0.455,0.035-0.68,0.043c-0.102,0.103-0.14,0.186-0.149,0.299c-0.007,0.151,0.048,0.31,0.144,0.412
		c0.091,0.098,0.229,0.157,0.354,0.157l0.567,0.008c2.872,0,5.924-0.433,9.062-1.289c-0.253,3.646-0.106,6.328,0.471,8.946
		c0.378,1.774,1.001,3.396,1.854,4.819c0.889,1.481,2.187,2.793,3.863,3.901c1.491,0.972,3.289,1.721,5.499,2.288
		c1.014,0.276,2.09,0.449,2.955,0.587c1.203,0.187,2.325,0.313,3.433,0.391c1.65,0.131,3.298,0.181,4.949,0.231l0.416,0.015
		l0.779,0.029c0.753,0.021,1.513,0.05,2.273,0.087l-0.19,0.098l-0.138,0.272c-0.165,0.341-0.353,0.667-0.541,0.99l-0.159,0.27
		l-0.181,0.304c-0.55,0.948-1.101,1.896-1.672,2.815c-1.15,1.837-2.342,3.561-3.538,5.122c-1.375,1.746-2.848,3.404-4.379,4.928
		c-1.515,1.529-3.253,3.064-5.165,4.559c-1.776,1.352-3.636,2.601-5.526,3.71c-1.803,1.062-3.77,2.038-6.013,2.99
		c-1.894,0.778-3.95,1.485-5.948,2.047c-1.931,0.551-4.035,0.984-6.259,1.287c-1.92,0.26-3.991,0.405-6.156,0.435h-0.282
		c-2.097,0-4.24-0.147-6.367-0.44c-1.828-0.254-3.693-0.633-5.396-1.094c-1.8-0.49-3.578-1.097-5.281-1.8
		c-1.759-0.759-3.467-1.623-5.073-2.57c-1.538-0.902-3.121-1.98-4.702-3.204c-1.838-1.437-3.722-3.138-5.446-4.921
		c-1.743-1.776-3.433-3.733-5.168-5.982c-2.388-3.107-4.729-6.596-6.956-10.371l0.503,0.106c1.378-0.043,2.747-0.086,4.107-0.166
		c2.24-0.121,4.229-0.358,6.077-0.724c1.969-0.381,3.84-1.019,5.564-1.891c1.8-0.901,3.415-2.17,4.667-3.666
		c1.176-1.396,2.113-3.131,2.782-5.153c0.562-1.733,0.876-3.683,0.956-5.955c0.044-1.545-0.074-3.141-0.362-4.882
		c4.236,1.748,8.953,2.835,13.995,3.257c0.354,0,0.588-0.166,0.641-0.457c0.021-0.14-0.021-0.312-0.112-0.439
		c-0.102-0.118-0.232-0.189-0.355-0.195c-2.991-0.262-5.994-0.854-8.926-1.76c-2.046-0.641-4.303-1.529-6.526-2.567
		c-2.07-0.98-4.133-2.128-6.312-3.51c-2.131-1.383-4.241-2.955-6.271-4.675c-1.969-1.668-3.926-3.571-5.817-5.657
		c-3.958-4.421-7.35-9.355-10.084-14.668l-0.036,0.32c-1.543-3.471-2.797-6.611-3.693-9.342c0.457-0.927,0.961-1.903,1.489-2.874
		l0.774-1.375c0.521-0.919,1.037-1.839,1.531-2.772c1.1-2.064,2.443-4.818,3.011-7.823c0.26-1.354,0.34-2.75,0.239-4.152
		c-0.109-1.424-0.422-2.902-0.956-4.52c-0.403-1.214-0.99-2.512-1.899-4.208l-0.312-0.586c-0.539-1.006-1.082-2.016-1.554-3.104
		c-0.382-0.934-0.621-1.758-0.751-2.595c-0.065-0.578-0.073-1.142-0.022-1.725c0.08-0.537,0.226-1.067,0.447-1.616
		c0.364-0.805,0.845-1.601,1.518-2.5L98.522,110.88z M213.499,132.154c0.32,0,0.734-0.11,1.154-0.3
		c0.559-0.233,1.062-0.559,1.615-0.927l0.211-0.137c0.427-0.29,0.854-0.579,1.315-0.811c0.229-0.078,0.474-0.15,0.733-0.201
		c0.173-0.021,0.359-0.031,0.548-0.031c0.229,0,0.454,0.017,0.67,0.038c0.135,0.022,0.229,0.043,0.313,0.073
		c-0.184,1.377-0.423,2.62-0.719,3.675l-0.036,0.219c-0.379,1.152-0.904,2.297-1.519,3.31c-0.427,0.662-0.911,1.263-1.476,1.834
		c-0.461,0.418-0.94,0.771-1.42,1.046c-0.448,0.208-0.889,0.367-1.343,0.498c-0.439,0.104-0.951,0.157-1.614,0.174l-0.499-0.051
		l-0.241-0.015c0.422-1.013,0.73-2.157,1.027-3.264c0.33-1.283,0.619-2.489,0.909-3.706l0.34-1.426
		C213.479,132.152,213.488,132.154,213.499,132.154 M82.396,268.104c-0.615-0.164-1.198-0.423-1.839-0.719
		c-1.847-0.884-3.568-1.807-5.11-2.742c-0.025-0.977-0.097-2.025-0.177-3.077c-0.079-0.991-0.145-1.896-0.202-2.801
		c-0.16-2.36-0.261-4.576-0.311-6.765c-0.138-5.096,0.058-9.53,0.601-13.556c0.557-4.057,1.469-7.551,2.79-10.685
		c0.901-2.043,1.994-3.942,3.25-5.648c1.192-1.521,2.497-2.841,3.992-4.028c1.518-1.16,3.224-2.155,5.07-2.958
		c1.079-0.449,2.086-0.804,3.082-1.084c0.848-0.233,1.793-0.432,2.893-0.608c0.671,1.975,1.158,4.021,1.47,6.238
		c0.425,3.355,0.369,7.159-0.174,11.302c-0.883,6.363-2.754,12.889-5.71,19.949c-1.441,3.367-2.99,6.523-4.604,9.386
		c-0.695,1.23-1.519,2.611-2.452,4.096C84.108,265.736,83.29,266.915,82.396,268.104 M211.799,269.334l-0.124-0.49l-0.115-0.397
		l-0.438-1.361c-0.289-0.927-0.577-1.853-0.86-2.779c-0.567-1.845-1.117-3.827-1.684-6.065c-1.065-4.205-1.879-8.358-2.419-12.344
		c-1.062-7.986-1.158-15.538-0.274-22.44c0.385-2.791,0.887-5.282,1.534-7.618c2.119,1.084,4.054,2.272,5.724,3.548
		c1.869,1.486,3.596,3.222,5.13,5.157c1.745,2.296,3.251,4.918,4.469,7.792c1.661,3.985,2.857,8.525,3.554,13.493
		c0.308,2.344,0.527,4.903,0.65,7.611c0.051,1.23,0.079,2.454,0.079,3.685c-0.007,0.875-0.021,1.759-0.072,2.633l-0.041,0.623
		l-0.046,0.622c-0.051,0.563-0.086,1.086-0.102,1.615c-0.374,0.283-0.779,0.542-1.192,0.802l-0.716,0.456
		c-0.779,0.47-1.583,0.926-2.395,1.354c-1.577,0.836-3.307,1.603-5.44,2.415l0.256,0.08l-1.644,0.442
		C214.37,268.562,213.109,268.95,211.799,269.334 M180.26,276.14c-1.885-8.106-3.151-14.716-3.985-20.806
		c-0.601-4.443-0.97-8.57-1.129-12.621c-0.078-1.916-0.104-3.769-0.072-5.508c1.433-0.795,2.972-1.785,4.56-2.931
		c3.292-2.388,6.288-5.157,8.906-8.224c0.061,7.821,0.917,15.866,2.516,23.897c0.959,4.857,2.243,9.68,3.82,14.332
		c1.009,2.966,2.164,5.85,3.433,8.571c-0.719,0.079-1.492,0.248-2.274,0.417l-1.258,0.267
		C190.014,274.551,185.132,275.427,180.26,276.14 M117.138,276.64c-3.796-0.462-7.332-0.981-10.816-1.591
		c-2.602-0.471-5.027-0.97-7.412-1.527c3.523-7.045,6.34-13.877,8.627-20.857c1.773-5.418,3.132-10.832,4.046-16.091
		c0.586-3.42,0.974-6.741,1.144-9.875c1.711,2.225,3.754,4.385,6.041,6.428c1.929,1.693,3.949,3.219,6.002,4.53l-0.05,0.633
		l-0.029,0.755c-0.13,2.684-0.38,5.423-0.767,8.372C122.661,256.717,120.297,265.825,117.138,276.64 M147.428,278.56
		c-3.345,0-6.573-0.071-9.597-0.211c0.221-1.325,0.365-2.737,0.496-4.156c0.344-3.771,0.614-8.004,0.825-12.942
		c0.243-5.611,0.33-11.31,0.415-16.821l0.005-0.312v-0.311l0.007-0.312c0.535,0.192,1.18,0.303,1.737,0.388
		c2.372,0.374,4.864,0.563,7.408,0.563c2.83,0,5.66-0.24,8.413-0.716l0.162,8.224l0.213,9.593
		c0.124,5.625,0.247,11.232,0.428,16.843C154.102,278.496,150.559,278.56,147.428,278.56"/>
</g>
</svg>
